<svg width="904" height="298" viewBox="0 0 904 298" fill="none" xmlns="http://www.w3.org/2000/svg">
<path d="M257.842 74.4327V223.298L128.921 297.731L0 223.298V74.4327L128.921 0L257.842 74.4327ZM3.66316 76.5476V221.183L128.921 293.501L254.179 221.183V76.5476L128.921 4.22986L3.66316 76.5476Z" fill="black"/>
<path d="M16.4058 199.05L39.5119 212.351V103.357L16.4058 116.629V199.05Z" fill="black"/>
<path d="M56.1934 222.156L79.2995 235.513V56.9193L56.1934 70.2758V222.156Z" fill="black"/>
<path d="M242.282 199.05L219.176 212.351V103.357L242.282 116.629V199.05Z" fill="black"/>
<path d="M200.578 221.931L177.472 235.287V56.6938L200.578 70.0502V221.931Z" fill="black"/>
<path d="M96.0372 85.6336V46.9731L119.143 33.6448V98.3701L96.0372 85.6336Z" fill="#FFEE00"/>
<path d="M119.143 144.977V258.394L96.0372 245.065V105.351L137.339 129.197V33.6445L160.424 46.9728V168.81L119.143 144.977Z" fill="black"/>
<path d="M160.847 244.953L137.741 258.394V175.099L149.294 181.794L160.847 188.489V244.953Z" fill="black"/>
<path d="M902.338 169H880.213L836.4 105V169H817.15V75.25H839.275L883.088 139.375V75.25H902.338V169Z" fill="black"/>
<path d="M762.17 169V75.25H781.42V169H762.17Z" fill="black"/>
<path d="M694.69 169H674.315L636.94 75.25H657.127L684.502 147L711.752 75.25H732.002L694.69 169Z" fill="black"/>
<path d="M613.085 169H591.772L572.085 135.125H554.21V169H534.96V75.25H572.96C580.502 75.25 586.96 76.4375 592.335 78.8125C597.71 81.1875 601.814 84.625 604.647 89.125C607.522 93.5833 608.96 98.9375 608.96 105.188C608.96 111.604 607.439 117.083 604.397 121.625C601.397 126.125 597.106 129.5 591.522 131.75L613.085 169ZM554.21 119.812H571.522C577.231 119.812 581.606 118.625 584.647 116.25C587.731 113.833 589.272 110.396 589.272 105.938C589.272 101.479 587.731 98.0625 584.647 95.6875C581.606 93.2708 577.231 92.0625 571.522 92.0625H554.21V119.812Z" fill="black"/>
<path d="M430.542 169H410.355L447.73 75.25H468.042L505.355 169H485.167L477.48 148.875H438.23L430.542 169ZM444.542 132H471.23L457.855 97.25L444.542 132Z" fill="black"/>
<path d="M320.875 169H301.625V75.25H320.875V114.438H361.438V75.25H380.688V169H361.438V131.25H320.875V169Z" fill="black"/>
<path d="M877.321 219.203L880.742 213.695C881.821 214.57 882.86 215.289 883.86 215.852C884.875 216.398 885.875 216.805 886.86 217.07C887.844 217.32 888.852 217.445 889.883 217.445C891.102 217.445 892.156 217.273 893.047 216.93C893.938 216.586 894.625 216.094 895.11 215.453C895.61 214.812 895.86 214.07 895.86 213.227C895.86 212.242 895.547 211.414 894.922 210.742C894.297 210.07 893.477 209.484 892.461 208.984C891.461 208.469 890.375 207.977 889.203 207.508C888.063 207.039 886.914 206.531 885.758 205.984C884.617 205.422 883.563 204.758 882.594 203.992C881.641 203.227 880.867 202.297 880.274 201.203C879.696 200.094 879.406 198.75 879.406 197.172C879.406 195.109 879.922 193.328 880.953 191.828C882 190.328 883.43 189.172 885.242 188.359C887.055 187.547 889.125 187.141 891.453 187.141C893.094 187.141 894.797 187.359 896.563 187.797C898.344 188.234 900.117 188.898 901.883 189.789L899.047 195.625C897.938 194.953 896.742 194.422 895.461 194.031C894.18 193.641 892.977 193.445 891.852 193.445C890.836 193.445 889.946 193.602 889.18 193.914C888.43 194.227 887.844 194.664 887.422 195.227C887 195.773 886.789 196.422 886.789 197.172C886.789 198.062 887.094 198.836 887.703 199.492C888.313 200.133 889.102 200.703 890.071 201.203C891.055 201.703 892.11 202.203 893.235 202.703C894.391 203.203 895.555 203.75 896.727 204.344C897.914 204.938 898.992 205.641 899.961 206.453C900.946 207.25 901.735 208.211 902.328 209.336C902.938 210.445 903.242 211.781 903.242 213.344C903.242 215.406 902.696 217.219 901.602 218.781C900.508 220.328 898.985 221.539 897.031 222.414C895.078 223.273 892.805 223.703 890.211 223.703C887.836 223.703 885.563 223.32 883.391 222.555C881.219 221.789 879.196 220.672 877.321 219.203Z" fill="black"/>
<path d="M815.269 223V187.844H837.957V194.148H822.488V202.141H836.996V208.469H822.488V216.695H838.191V223H815.269Z" fill="black"/>
<path d="M766.812 223V187.844H774.031V223H766.812Z" fill="black"/>
<path d="M727.448 223H719.456L712.073 210.297H705.37V223H698.151V187.844H712.401C715.229 187.844 717.651 188.289 719.667 189.18C721.682 190.07 723.222 191.359 724.284 193.047C725.362 194.719 725.901 196.727 725.901 199.07C725.901 201.477 725.331 203.531 724.19 205.234C723.065 206.922 721.456 208.188 719.362 209.031L727.448 223ZM705.37 204.555H711.862C714.003 204.555 715.643 204.109 716.784 203.219C717.94 202.312 718.518 201.023 718.518 199.352C718.518 197.68 717.94 196.398 716.784 195.508C715.643 194.602 714.003 194.148 711.862 194.148H705.37V204.555Z" fill="black"/>
<path d="M648.897 223H641.678V194.148H631.319V187.844H659.28V194.148H648.897V223Z" fill="black"/>
<path d="M568.189 219.203L571.611 213.695C572.689 214.57 573.729 215.289 574.729 215.852C575.744 216.398 576.744 216.805 577.729 217.07C578.713 217.32 579.721 217.445 580.752 217.445C581.971 217.445 583.025 217.273 583.916 216.93C584.807 216.586 585.494 216.094 585.979 215.453C586.479 214.812 586.729 214.07 586.729 213.227C586.729 212.242 586.416 211.414 585.791 210.742C585.166 210.07 584.346 209.484 583.33 208.984C582.33 208.469 581.244 207.977 580.072 207.508C578.932 207.039 577.783 206.531 576.627 205.984C575.486 205.422 574.432 204.758 573.463 203.992C572.51 203.227 571.736 202.297 571.143 201.203C570.564 200.094 570.275 198.75 570.275 197.172C570.275 195.109 570.791 193.328 571.822 191.828C572.869 190.328 574.299 189.172 576.111 188.359C577.924 187.547 579.994 187.141 582.322 187.141C583.963 187.141 585.666 187.359 587.432 187.797C589.213 188.234 590.986 188.898 592.752 189.789L589.916 195.625C588.807 194.953 587.611 194.422 586.33 194.031C585.049 193.641 583.846 193.445 582.721 193.445C581.705 193.445 580.814 193.602 580.049 193.914C579.299 194.227 578.713 194.664 578.291 195.227C577.869 195.773 577.658 196.422 577.658 197.172C577.658 198.062 577.963 198.836 578.572 199.492C579.182 200.133 579.971 200.703 580.939 201.203C581.924 201.703 582.979 202.203 584.104 202.703C585.26 203.203 586.424 203.75 587.596 204.344C588.783 204.938 589.861 205.641 590.83 206.453C591.814 207.25 592.604 208.211 593.197 209.336C593.807 210.445 594.111 211.781 594.111 213.344C594.111 215.406 593.564 217.219 592.471 218.781C591.377 220.328 589.854 221.539 587.9 222.414C585.947 223.273 583.674 223.703 581.08 223.703C578.705 223.703 576.432 223.32 574.26 222.555C572.088 221.789 570.064 220.672 568.189 219.203Z" fill="black"/>
<path d="M528.591 187.844V207.18C528.591 210.617 527.974 213.57 526.74 216.039C525.521 218.508 523.763 220.406 521.466 221.734C519.185 223.047 516.443 223.703 513.24 223.703C510.052 223.703 507.31 223.047 505.013 221.734C502.716 220.406 500.951 218.508 499.716 216.039C498.498 213.57 497.888 210.617 497.888 207.18V187.844H505.107V206.289C505.107 208.742 505.412 210.789 506.021 212.43C506.646 214.07 507.56 215.312 508.763 216.156C509.966 216.984 511.458 217.398 513.24 217.398C515.021 217.398 516.513 216.984 517.716 216.156C518.919 215.312 519.826 214.07 520.435 212.43C521.06 210.789 521.373 208.742 521.373 206.289V187.844H528.591Z" fill="black"/>
<path d="M425.524 223V187.844H437.032C441.282 187.844 444.962 188.562 448.071 190C451.181 191.438 453.587 193.469 455.29 196.094C456.993 198.719 457.845 201.828 457.845 205.422C457.845 209 456.993 212.109 455.29 214.75C453.587 217.375 451.181 219.406 448.071 220.844C444.962 222.281 441.282 223 437.032 223H425.524ZM432.743 216.695H437.29C440.103 216.695 442.485 216.258 444.438 215.383C446.407 214.492 447.899 213.211 448.915 211.539C449.946 209.852 450.462 207.812 450.462 205.422C450.462 203.016 449.946 200.977 448.915 199.305C447.899 197.633 446.407 196.359 444.438 195.484C442.485 194.594 440.103 194.148 437.29 194.148H432.743V216.695Z" fill="black"/>
<path d="M384.262 223H375.965L359.536 199V223H352.317V187.844H360.614L377.043 211.891V187.844H384.262V223Z" fill="black"/>
<path d="M303.859 223V187.844H311.078V223H303.859Z" fill="black"/>
</svg>
